:version 1.10
:name ASF
:units
  mass 1
  length 1
  angle deg
:documentation
  ASF file generated by Kaydara
:root
  axis xyz
  order  tx ty tz rx ry rz
  position 0 0 0
  orientation 0 0 0
:bonedata
  begin
    id 1
    name RightUpLegDummy
    direction -0.718183 -0.695806 0.00816078
    length 4.904
    axis 0 0 0 xyz
  end
  begin
    id 2
    name RightUpLeg
    direction 3.53989e-006 -0.995788 0.0916897
    length 17.4976
    axis -3.49089 -0.000906621 0.000287158 xyz
    dof rx ry rz
  end
  begin
    id 3
    name RightLeg
    direction 0.00371093 -0.995096 -0.0988418
    length 16.5821
    axis 3.68512 0.0193738 -0.131023 xyz
    dof rx ry rz
  end
  begin
    id 4
    name RightFoot
    direction 0.000791514 -0.46099 0.887405
    length 3.77069
    axis 4.84075e-005 -0.120479 -0.188788 xyz
    dof rx ry rz
  end
  begin
    id 5
    name RightToes
    direction 0.00124746 -0.014064 0.9999
    length 3.85082
    axis 0.00048216 0.542163 -0.142577 xyz
    dof rx ry rz
  end
  begin
    id 6
    name SpineDummy
    direction 8.36599e-015 1 5.97571e-016
    length 4.6813
    axis 0 0 0 xyz
  end
  begin
    id 7
    name Spine
    direction -4.63632e-008 0.999988 0.00495137
    length 10.1015
    axis -0.00138897 0.000121419 3.25764e-006 xyz
    dof rx ry rz
  end
  begin
    id 8
    name Spine1
    direction 0 0 0
    length 0
    axis -0.00138896 0.000121452 2.39764e-006 xyz
    dof rx ry rz
  end
  begin
    id 9
    name HEadDummy
    direction -3.91456e-008 0.999999 0.00127422
    length 3.43865
    axis -0.00138896 0.000121452 2.39764e-006 xyz
  end
  begin
    id 10
    name HEad
    direction -0.0222688 0.980941 0.193023
    length 5.12695
    axis -0.00138895 0.000121452 2.39764e-006 xyz
    dof rx ry rz
  end
  begin
    id 11
    name LeftShoulder1Dummy
    direction 0.998891 -0.0402508 -0.0244456
    length 3.5433
    axis -0.00138896 0.000121452 2.39764e-006 xyz
  end
  begin
    id 12
    name LeftShoulder1
    direction 0.99951 -0.000327743 0.0313091
    length 4.05031
    axis -0.00138896 0.000121452 2.39764e-006 xyz
    dof rx ry rz
  end
  begin
    id 13
    name LeftArm
    direction 0.998561 -0.00100054 -0.0536182
    length 10.3537
    axis -23.1894 0.134784 0.96751 xyz
    dof rx ry rz
  end
  begin
    id 14
    name LeftForeArm
    direction 0.998903 0.00866434 0.046012
    length 8.70632
    axis -9.91835 -0.06569 -0.177792 xyz
    dof rx ry rz
  end
  begin
    id 15
    name LeftHand
    direction 0.992938 -0.0411636 0.11126
    length 5.32135
    axis -0.00960227 -0.00340091 0.185174 xyz
    dof rx ry rz
  end
  begin
    id 16
    name RightShoulderDummy
    direction -0.998891 -0.0402509 -0.0244414
    length 3.5433
    axis -0.00138896 0.000121452 2.39764e-006 xyz
  end
  begin
    id 17
    name RightShoulder
    direction -0.99951 -0.000327827 0.0313133
    length 4.05031
    axis 0.215806 0.000203644 -0.00680151 xyz
    dof rx ry rz
  end
  begin
    id 18
    name RightArm
    direction -0.998573 -0.000999583 -0.053403
    length 10.3947
    axis -23.2009 -0.134239 -0.9641 xyz
    dof rx ry rz
  end
  begin
    id 19
    name RightForeArm
    direction -0.998898 0.00868026 0.0461306
    length 8.68355
    axis -9.92322 0.0658061 0.178869 xyz
    dof rx ry rz
  end
  begin
    id 20
    name RightHand
    direction -0.992843 -0.0414603 0.112003
    length 5.28593
    axis -0.00960634 0.00330671 -0.185226 xyz
    dof rx ry rz
  end
  begin
    id 21
    name LeftUpLegDummy
    direction 0.718183 -0.695806 0.00816078
    length 4.904
    axis 0 0 0 xyz
  end
  begin
    id 22
    name LeftUpLeg
    direction -6.8115e-006 -0.995793 0.0916336
    length 17.4976
    axis -3.48766 0.00143441 -0.000523914 xyz
    dof rx ry rz
  end
  begin
    id 23
    name LeftLeg
    direction -0.00601357 -0.995091 -0.0987824
    length 16.5821
    axis 3.68177 -0.00654038 -0.00028478 xyz
    dof rx ry rz
  end
  begin
    id 24
    name LeftFoot
    direction -0.00417578 -0.460984 0.887399
    length 3.77069
    axis 1.87232e-006 4.66002e-005 -8.1837e-006 xyz
    dof rx ry rz
  end
  begin
    id 25
    name LeftToes
    direction 0.00818058 -0.00485161 0.999955
    length 3.85048
    axis 1.06246e-005 4.65855e-005 -8.18502e-006 xyz
    dof rx ry rz
  end
:hierarchy
  begin
    root RightUpLegDummy SpineDummy LeftUpLegDummy
    RightUpLegDummy RightUpLeg
    RightUpLeg RightLeg
    RightLeg RightFoot
    RightFoot RightToes
    SpineDummy Spine
    Spine Spine1
    Spine1 HEadDummy LeftShoulder1Dummy RightShoulderDummy
    HEadDummy HEad
    LeftShoulder1Dummy LeftShoulder1
    LeftShoulder1 LeftArm
    LeftArm LeftForeArm
    LeftForeArm LeftHand
    RightShoulderDummy RightShoulder
    RightShoulder RightArm
    RightArm RightForeArm
    RightForeArm RightHand
    LeftUpLegDummy LeftUpLeg
    LeftUpLeg LeftLeg
    LeftLeg LeftFoot
    LeftFoot LeftToes
  end

:SAMPLES-PER-SECOND 30
:FULLY-SPECIFIED
:DEGREES
1
root  7.40259 39.9648 4.44915 -52.7984 -84.6232 48.3692
RightUpLeg  1.85209 -13.3448 -19.2924
RightLeg  -0.966851 -10.3918 -0.400577
RightFoot  10.8858 -2.84994 14.8188
RightToes  -6.40286e-010 0 -3.6325e-017
Spine  8.99722 2.26281 3.55834
Spine1  -3.03404 5.07106 -17.5208
HEad  -2.63891 -20.6171 3.60793
LeftShoulder1  2.89489 -6.26036 -23.4055
LeftArm  8.92839 1.02009 -43.8033
LeftForeArm  -7.40868 -13.5336 -11.808
LeftHand  -0.36552 2.01991 12.4413
RightShoulder  1.7064 3.51217 17.791
RightArm  25.6984 -12.3412 61.3223
RightForeArm  -2.23648 34.3955 7.83324
RightHand  -0.145028 -4.222 -13.1297
LeftUpLeg  4.96589 7.87091 1.54003
LeftLeg  7.80539 13.598 2.28539
LeftFoot  -4.80416 0.569614 -9.45542
LeftToes  -2.09187e-010 -4.93792e-011 -8.21189e-011
2
root  7.29694 39.9874 4.18708 -49.1042 -85.109 44.7236
RightUpLeg  1.40184 -12.5562 -17.9158
RightLeg  -0.0560144 -11.2156 -0.895474
RightFoot  10.4161 -2.59164 13.7972
RightToes  -6.40286e-010 0 -3.6325e-017
Spine  8.93206 2.10878 3.18015
Spine1  -3.01091 4.67395 -15.98
HEad  -2.99505 -20.2446 3.80474
LeftShoulder1  2.87178 -6.23242 -23.2446
LeftArm  9.65672 2.19545 -44.3714
LeftForeArm  -9.28977 -14.4708 -11.2734
LeftHand  -0.385962 1.88263 12.6515
RightShoulder  1.70913 3.49057 17.9154
RightArm  30.9688 -12.3628 61.0386
RightForeArm  -5.22149 29.8979 6.57542
RightHand  -0.158498 -4.03467 -12.4583
LeftUpLeg  4.94199 8.15979 2.61207
LeftLeg  7.97146 13.1674 2.4435
LeftFoot  -4.65888 0.603328 -9.83819
LeftToes  -2.09187e-010 -4.93792e-011 -8.21189e-011
3
root  7.09841 40.0155 3.67282 -38.7784 -85.9141 34.6382
RightUpLeg  0.568665 -11.2373 -15.4163
RightLeg  1.51212 -12.7312 -1.60481
RightFoot  9.43516 -2.21722 12.4073
RightToes  -6.40286e-010 0 -3.6325e-017
Spine  8.51684 1.78435 2.47407
Spine1  -2.71497 3.90678 -13.0686
HEad  -3.64701 -19.5577 4.07556
LeftShoulder1  2.82913 -6.2062 -22.8648
LeftArm  12.4392 4.33078 -45.3727
LeftForeArm  -12.9292 -16.2789 -10.2616
LeftHand  -0.404086 1.62883 12.3853
RightShoulder  1.72722 3.47138 18.2701
RightArm  36.7715 -12.2455 60.1205
RightForeArm  -6.69801 21.9203 6.78337
RightHand  -0.105395 -4.44828 -10.7932
LeftUpLeg  4.58164 8.71329 4.68706
LeftLeg  8.56378 12.2495 2.80743
LeftFoot  -4.41946 0.678576 -10.7582
LeftToes  -2.09187e-010 -4.93792e-011 -8.21189e-011
4
root  6.90203 40.0266 3.10772 -24.8013 -86.5165 20.9163
RightUpLeg  -0.204739 -10.175 -13.1193
RightLeg  3.09327 -13.9215 -2.08414
RightFoot  8.22448 -1.959 11.6582
RightToes  -6.40286e-010 0 -3.6325e-017
Spine  7.95955 1.42331 1.68042
Spine1  -2.05966 3.09951 -10.033
HEad  -4.44441 -18.845 4.31912
LeftShoulder1  2.80566 -6.25307 -22.4623
LeftArm  16.7143 6.28873 -46.2001
LeftForeArm  -15.74 -17.8936 -9.33046
LeftHand  -0.393885 1.28653 11.0919
RightShoulder  1.75393 3.4476 18.7793
RightArm  22.6856 -11.7223 58.0101
RightForeArm  11.2269 11.8373 13.4678
RightHand  -0.00360821 -5.61648 -8.96156
LeftUpLeg  4.07906 9.25506 6.82886
LeftLeg  9.37233 11.2942 3.16604
LeftFoot  -4.13244 0.785275 -12.0388
LeftToes  -2.09187e-010 -4.93792e-011 -8.21189e-011
5
root  6.74697 40.0281 2.59191 -12.3411 -86.8631 8.38017
RightUpLeg  -0.509159 -9.55859 -11.482
RightLeg  4.37138 -14.4068 -2.28239
RightFoot  7.06963 -1.79692 11.3553
RightToes  -6.40286e-010 0 -3.6325e-017
Spine  7.70831 1.07389 1.0387
Spine1  -1.15181 2.39276 -7.49576
HEad  -5.38131 -18.1576 4.53515
LeftShoulder1  2.81018 -6.33927 -22.2437
LeftArm  20.9757 7.5697 -46.5694
LeftForeArm  -15.9858 -18.678 -8.87403
LeftHand  -0.368381 0.79717 9.31021
RightShoulder  1.76198 3.36544 19.2336
RightArm  2.94056 -11.7052 55.6023
RightForeArm  30.3886 2.37109 15.9254
RightHand  0.0813079 -6.8073 -8.74724
LeftUpLeg  3.92875 9.61831 8.66877
LeftLeg  10.1285 10.6274 3.37618
LeftFoot  -3.733 0.912474 -13.3377
LeftToes  -2.09187e-010 -4.93792e-011 -8.21189e-011
6
root  6.60966 40.0283 2.11666 0.782818 -87.1072 -5.19707
RightUpLeg  -0.230065 -9.14629 -10.0716
RightLeg  5.18107 -14.597 -2.29344
RightFoot  6.14645 -1.63601 10.8813
RightToes  -6.40286e-010 0 -3.6325e-017
Spine  7.83083 0.684764 0.841006
Spine1  -0.150706 1.73355 -5.40318
HEad  -6.35002 -17.3944 4.67037
LeftShoulder1  2.8162 -6.35626 -22.2565
LeftArm  23.5303 8.36343 -46.6737
LeftForeArm  -13.5205 -18.3743 -9.13332
LeftHand  -0.350612 0.282325 8.00397
RightShoulder  1.73801 3.21873 19.454
RightArm  -7.97036 -12.3629 53.6768
RightForeArm  37.3086 -2.24863 14.7301
RightHand  0.141983 -7.31723 -10.2212
LeftUpLeg  4.14347 9.67379 10.4563
LeftLeg  10.9781 10.3096 3.54255
LeftFoot  -3.21083 1.06216 -14.6107
LeftToes  -2.09187e-010 -4.93792e-011 -8.21189e-011
7
root  6.4676 40.0074 1.65415 19.0853 -87.1415 -24.0039
RightUpLeg  0.207262 -8.75124 -8.48954
RightLeg  5.79138 -14.89 -2.19562
RightFoot  5.27458 -1.47016 10.2911
RightToes  -6.40286e-010 0 -3.6325e-017
Spine  7.99356 0.247308 1.19434
Spine1  0.776681 1.08605 -3.53824
HEad  -7.01739 -16.5536 4.6427
LeftShoulder1  2.80766 -6.2936 -22.3578
LeftArm  22.7576 8.98864 -46.8587
LeftForeArm  -8.69547 -16.7141 -10.3415
LeftHand  -0.341656 0.0450691 7.47454
RightShoulder  1.69506 3.06251 19.4134
RightArm  -12.8805 -13.2996 51.9791
RightForeArm  36.1499 -3.63574 13.5881
RightHand  0.144945 -7.10422 -11.4409
LeftUpLeg  4.06096 9.09789 12.4097
LeftLeg  12.5511 10.4339 3.79667
LeftFoot  -2.74782 1.23819 -16.1731
LeftToes  -2.09187e-010 -4.93792e-011 -8.21189e-011
8
root  6.33293 39.9633 1.20098 36.71 -86.94 -41.9421
RightUpLeg  0.416223 -8.43089 -6.97881
RightLeg  6.46451 -15.1124 -2.0323
RightFoot  4.27617 -1.34537 10.003
RightToes  -6.40286e-010 0 -3.6325e-017
Spine  8.0324 -0.105662 1.72178
Spine1  1.45527 0.563081 -1.97482
HEad  -7.04715 -15.7532 4.4647
LeftShoulder1  2.79987 -6.2628 -22.369
LeftArm  17.6145 9.55188 -47.2257
LeftForeArm  -1.82821 -13.4672 -12.3355
LeftHand  -0.3244 0.272186 7.39381
RightShoulder  1.64992 2.9291 19.2351
RightArm  -14.2819 -14.3813 50.4266
RightForeArm  31.3309 -2.87718 13.2275
RightHand  0.0988568 -6.63659 -11.3074
LeftUpLeg  3.36975 7.892 14.2987
LeftLeg  14.9203 11.0152 4.05297
LeftFoot  -2.21696 1.46272 -18.0372
LeftToes  -2.09187e-010 -4.93792e-011 -8.21189e-011
9
root  6.22259 39.9187 0.77333 50.71 -86.8612 -56.1971
RightUpLeg  0.492874 -8.28351 -5.8506
RightLeg  7.14493 -14.8877 -1.86204
RightFoot  3.27241 -1.2524 9.91905
RightToes  -6.40286e-010 0 -3.6325e-017
Spine  8.19943 -0.297773 2.28757
Spine1  1.80715 0.299613 -0.897503
HEad  -6.44821 -15.0251 4.24357
LeftShoulder1  2.80508 -6.3079 -22.2752
LeftArm  9.10847 10.1338 -47.5985
LeftForeArm  5.51633 -9.10072 -14.0954
LeftHand  -0.291352 0.907842 7.51412
RightShoulder  1.60945 2.80158 19.1035
RightArm  -13.71 -15.3413 49.1404
RightForeArm  26.3704 -0.962242 13.4887
RightHand  0.0338515 -5.97808 -10.8385
LeftUpLeg  2.39134 6.99131 15.8986
LeftLeg  17.7406 11.3662 4.35405
LeftFoot  -1.24286 1.78737 -19.9651
LeftToes  -2.09187e-010 -4.93792e-011 -8.21189e-011
10
root  6.12862 39.8846 0.377106 64.9533 -87.1133 -70.8346
RightUpLeg  0.617517 -8.32174 -5.21772
RightLeg  7.844 -14.1387 -1.72332
RightFoot  2.36774 -1.14495 9.63695
RightToes  -6.40286e-010 0 -3.6325e-017
Spine  8.69249 -0.406656 2.96691
Spine1  1.91378 0.291489 -0.551715
HEad  -5.59355 -14.2867 4.0203
LeftShoulder1  2.80558 -6.32785 -22.2299
LeftArm  0.57856 10.8272 -47.7642
LeftForeArm  10.582 -5.02798 -14.7057
LeftHand  -0.255962 1.68253 7.86921
RightShoulder  1.57612 2.6766 19.0798
RightArm  -12.0231 -15.7979 48.3287
RightForeArm  23.2415 0.87158 13.8569
RightHand  -0.058903 -4.98084 -11.4477
LeftUpLeg  1.46771 7.03806 17.0767
LeftLeg  20.7581 10.9048 4.84999
LeftFoot  0.374498 2.30022 -22.1769
LeftToes  -2.09187e-010 -4.93792e-011 -8.21189e-011
11
root  6.03809 39.8627 0.0262835 81.5178 -87.4679 -87.816
RightUpLeg  0.848864 -8.58431 -5.02142
RightLeg  8.33127 -13.1209 -1.45586
RightFoot  1.64656 -1.03421 9.16647
RightToes  -6.40286e-010 0 -3.6325e-017
Spine  9.28523 -0.56883 3.92671
Spine1  1.91128 0.407827 -0.925852
HEad  -4.85736 -13.524 3.69234
LeftShoulder1  2.79477 -6.25457 -22.3392
LeftArm  -5.34597 11.5534 -47.6677
LeftForeArm  12.2035 -2.3099 -14.4498
LeftHand  -0.229308 2.33349 8.42849
RightShoulder  1.55043 2.58992 19.0168
RightArm  -10.3756 -15.681 48.2012
RightForeArm  22.2783 1.99014 14.0637
RightHand  -0.163226 -4.06197 -13.1495
LeftUpLeg  0.401288 7.04822 17.8872
LeftLeg  23.9662 10.3842 5.33354
LeftFoot  2.54997 3.04784 -24.7743
LeftToes  -2.09187e-010 -4.93792e-011 -8.21189e-011
12
root  5.94526 39.8429 -0.272458 96.5838 -87.7278 -103.05
RightUpLeg  1.01769 -9.07095 -5.15695
RightLeg  8.56229 -12.1034 -0.969659
RightFoot  1.03286 -0.960555 8.91004
RightToes  -6.40286e-010 0 -3.6325e-017
Spine  9.62221 -0.787619 5.0598
Spine1  1.844 0.542695 -1.66105
HEad  -4.32276 -12.8712 3.16649
LeftShoulder1  2.78763 -6.16935 -22.5279
LeftArm  -8.58399 12.1689 -47.4817
LeftForeArm  11.7643 -0.860695 -13.9974
LeftHand  -0.205805 2.82746 8.90141
RightShoulder  1.52954 2.55938 18.783
RightArm  -8.97366 -15.2709 48.7381
RightForeArm  21.9355 2.83877 14.1754
RightHand  -0.221656 -3.71093 -14.6385
LeftUpLeg  -1.28664 7.21593 18.4798
LeftLeg  27.4217 9.44559 5.60747
LeftFoot  5.21346 3.85531 -26.3167
LeftToes  -2.09187e-010 -4.93792e-011 -8.21189e-011
13
root  5.84446 39.8131 -0.526716 109.437 -87.8684 -115.786
RightUpLeg  0.976398 -9.59969 -5.39508
RightLeg  8.76369 -11.1638 -0.414891
RightFoot  0.411723 -0.922797 8.97616
RightToes  -6.40286e-010 0 -3.6325e-017
Spine  9.66503 -0.919354 6.20784
Spine1  1.70511 0.739312 -2.43307
HEad  -3.90666 -12.4787 2.53046
LeftShoulder1  2.80061 -6.15946 -22.7013
LeftArm  -10.0868 12.6259 -47.4769
LeftForeArm  11.0486 -0.266793 -13.6677
LeftHand  -0.180586 3.22263 9.09017
RightShoulder  1.5117 2.54946 18.5082
RightArm  -7.34029 -14.697 49.4865
RightForeArm  21.0513 3.77808 14.2607
RightHand  -0.216753 -3.78797 -14.9177
LeftUpLeg  -3.52515 7.60591 19.0013
LeftLeg  30.9874 7.87575 5.40751
LeftFoot  8.27976 4.25475 -24.6174
LeftToes  -2.09187e-010 -4.93792e-011 -8.21189e-011
14
root  5.73722 39.7793 -0.7354 124.957 -87.7053 -131.126
RightUpLeg  0.772946 -9.94536 -5.49966
RightLeg  9.09769 -10.1995 0.0235781
RightFoot  -0.187249 -0.884994 9.03109
RightToes  -6.40286e-010 0 -3.6325e-017
Spine  9.65772 -0.841066 7.4115
Spine1  1.55435 1.1204 -3.25713
HEad  -3.65335 -12.3442 1.96025
LeftShoulder1  2.83136 -6.18805 -22.9467
LeftArm  -10.47 12.8988 -47.744
LeftForeArm  10.3299 -0.324736 -13.5846
LeftHand  -0.160496 3.56419 9.44146
RightShoulder  1.50028 2.52431 18.416
RightArm  -5.78284 -13.6882 49.9114
RightForeArm  20.2317 4.31883 14.3742
RightHand  -0.190213 -3.93999 -14.2918
LeftUpLeg  -5.51324 7.85053 19.4983
LeftLeg  34.0133 5.6545 4.4336
LeftFoot  10.8485 3.85495 -19.8205
LeftToes  -2.09187e-010 -4.93792e-011 -8.21189e-011
